<?xml version="1.0" standalone="no"?><!DOCTYPE svg PUBLIC "-//W3C//DTD SVG 1.1//EN" "http://www.w3.org/Graphics/SVG/1.1/DTD/svg11.dtd"><svg t="1606613212788" class="icon" viewBox="0 0 1024 1024" version="1.1" xmlns="http://www.w3.org/2000/svg" p-id="1186" xmlns:xlink="http://www.w3.org/1999/xlink" width="200" height="200"><defs><style type="text/css"></style></defs><path d="M87.424 469.312A426.816 426.816 0 0 1 469.312 87.424V0h85.376v87.424a426.816 426.816 0 0 1 381.888 381.888H1024v85.376h-87.424a426.816 426.816 0 0 1-381.888 381.888V1024h-85.376v-87.424A426.816 426.816 0 0 1 87.424 554.688H0v-85.376h87.424z m424.576 384a341.312 341.312 0 1 0 0-682.624 341.312 341.312 0 0 0 0 682.624z m0-170.624a170.688 170.688 0 1 0 0-341.376 170.688 170.688 0 0 0 0 341.376z" fill="#d81e06" p-id="1187"></path></svg>